<svg id="Layer_1" data-name="Layer 1" xmlns="http://www.w3.org/2000/svg" xmlns:xlink="http://www.w3.org/1999/xlink" width="172" height="52.065" viewBox="0 0 172 52.065">
  <defs>
    <clipPath id="clip-path">
      <rect width="172" height="52.065" fill="none"/>
    </clipPath>
  </defs>
  <g id="Group_160" data-name="Group 160">
    <g id="Group_2" data-name="Group 2">
      <g clip-path="url(#clip-path)">
        <g id="Group_1" data-name="Group 1">
          <path id="Path_1" data-name="Path 1" d="M0,17.423H0V52.065A17.321,17.321,0,0,0,17.321,34.743V34.7A17.348,17.348,0,0,1,0,17.423" fill="#4ec3e0"/>
          <path id="Path_2" data-name="Path 2" d="M17.351,0H0V17.423A17.321,17.321,0,0,1,17.319,34.7h.032c10.925,0,19.782-6.424,19.782-17.35S28.276-2.433,17.351,0" fill="#43b02a"/>
          <path id="Path_3" data-name="Path 3" d="M0,17.423A17.348,17.348,0,0,0,17.319,34.7,17.319,17.319,0,0,0,0,17.423" fill="#4ec3e0"/>
          <path id="Path_4" data-name="Path 4" d="M0,17.423A17.348,17.348,0,0,0,17.319,34.7,17.319,17.319,0,0,0,0,17.423" fill="#046a38"/>
          <path id="Path_5" data-name="Path 5" d="M48.311,7.887v7.5H50.6a3.528,3.528,0,0,0,3.677-3.371,3.742,3.742,0,0,0,0-.382A3.52,3.52,0,0,0,50.6,7.887ZM44.452,4.48h6.254c4.333,0,7.531,2.848,7.531,7.159s-3.247,7.136-7.584,7.136H48.311v5.668H44.452Z" fill="#002e5d"/>
          <path id="Path_6" data-name="Path 6" d="M62.98,17.786a3.42,3.42,0,0,0,6.839.133c0-.044,0-.088,0-.133a3.424,3.424,0,1,0-6.839-.349,3.386,3.386,0,0,0,0,.349m6.839,5.164a5.112,5.112,0,0,1-3.912,1.756,6.58,6.58,0,0,1-6.718-6.438q0-.228.006-.456a6.639,6.639,0,0,1,6.211-7.04c.165-.01.33-.014.5-.012a5.065,5.065,0,0,1,3.912,1.81V11.028h3.7v13.41h-3.7Z" fill="#002e5d"/>
          <path id="Path_7" data-name="Path 7" d="M81.336,24.7c-3.193,0-5.136-1.49-5.136-5.4V7.141H79.9v3.885h4.763V14.22H79.9v5.031a1.911,1.911,0,0,0,1.729,2.078,1.937,1.937,0,0,0,.373,0,5.075,5.075,0,0,0,2.741-.8V23.8a5.931,5.931,0,0,1-3.406.905" fill="#002e5d"/>
          <path id="Path_8" data-name="Path 8" d="M90.224,24.439h-3.7V4.48h3.7v8.011a5.17,5.17,0,0,1,3.966-1.73c3.058,0,4.922,2.369,4.922,5.4v8.275H95.417v-7.4c0-1.7-.665-2.741-2.294-2.741a3.059,3.059,0,0,0-2.914,3.2c0,.061.007.122.014.183Z" fill="#002e5d"/>
          <path id="Path_9" data-name="Path 9" d="M111.008,11.026h3.7V24.438h-3.7Zm-.346-3.938a2.115,2.115,0,0,1,2.126-2.105l.083,0a2.1,2.1,0,1,1,0,4.2h0a2.116,2.116,0,0,1-2.207-2.02c0-.028,0-.055,0-.082m-5.136,7.136V24.443h-3.7V9.776a5.151,5.151,0,0,1,4.714-5.551,5.209,5.209,0,0,1,.661-.011,8.949,8.949,0,0,1,1.89.186V7.725a4.8,4.8,0,0,0-1.384-.186,2.011,2.011,0,0,0-2.179,1.83,1.988,1.988,0,0,0,0,.3v1.357H109.1v3.2Z" fill="#002e5d"/>
          <path id="Path_10" data-name="Path 10" d="M121.386,24.438h-3.7V11.028h3.7v1.463a5.166,5.166,0,0,1,3.965-1.73c3.058,0,4.923,2.369,4.923,5.4v8.274h-3.7V17.047c0-1.7-.665-2.741-2.293-2.741a3.059,3.059,0,0,0-2.915,3.2c0,.061.008.123.014.184Z" fill="#002e5d"/>
          <path id="Path_11" data-name="Path 11" d="M135.809,17.786a3.42,3.42,0,1,0,6.839.132q0-.066,0-.132a3.424,3.424,0,1,0-6.839-.349,3.386,3.386,0,0,0,0,.349m6.839,5.189a5.171,5.171,0,0,1-3.912,1.73,6.58,6.58,0,0,1-6.713-6.443c0-.15,0-.3.007-.45a6.651,6.651,0,0,1,6.239-7.04c.155-.01.311-.014.467-.012a5.123,5.123,0,0,1,3.912,1.784V4.48h3.7V24.438h-3.7Z" fill="#002e5d"/>
          <path id="Path_12" data-name="Path 12" d="M152.254,16.4h5.614a2.722,2.722,0,0,0-2.714-2.608,2.972,2.972,0,0,0-2.9,2.608m9.34,2.608h-9.287a3.719,3.719,0,0,0,3.831,2.528,8.775,8.775,0,0,0,4.418-1.224v3.166a9.259,9.259,0,0,1-4.738,1.225c-4.231,0-7.478-2.582-7.478-6.813a6.683,6.683,0,0,1,6.212-7.122q.3-.02.6-.014a6.3,6.3,0,0,1,6.523,6.058c.007.181.006.361,0,.542,0,.559-.027,1.091-.08,1.65" fill="#002e5d"/>
          <path id="Path_13" data-name="Path 13" d="M167.423,24.438h-3.7V11.028h3.7v2.261A5.319,5.319,0,0,1,172,10.761v4.12a3.494,3.494,0,0,0-4.577,3.592Z" fill="#002e5d"/>
        </g>
      </g>
    </g>
    <rect id="Rectangle_2" data-name="Rectangle 2" x="44.246" y="26.691" width="2.262" height="19.959" fill="#002e5d"/>
    <g id="Group_4" data-name="Group 4">
      <g clip-path="url(#clip-path)">
        <g id="Group_3" data-name="Group 3">
          <path id="Path_14" data-name="Path 14" d="M52.256,46.649H50.1V33.524h2.156v2.241a5.26,5.26,0,0,1,4.55-2.474c3.3,0,5.057,2.421,5.057,5.641v7.717H59.68V39.305c0-2.548-1.118-3.912-3.406-3.912-2.422,0-4.02,2.076-4.02,4.684Z" fill="#002e5d"/>
          <path id="Path_15" data-name="Path 15" d="M65.163,33.529h2.183V46.654H65.163Zm-.347-3.912a1.431,1.431,0,1,1,0,.013v-.013" fill="#002e5d"/>
          <path id="Path_16" data-name="Path 16" d="M75.193,46.888c-2.8,0-4.5-1.251-4.5-4.79V29.356h2.156v4.178H78.28v2H72.852v6.732a2.3,2.3,0,0,0,2.03,2.546,2.241,2.241,0,0,0,.5,0,5.205,5.205,0,0,0,3.058-.958v2.1a5.624,5.624,0,0,1-3.246.932" fill="#002e5d"/>
          <path id="Path_17" data-name="Path 17" d="M80.331,33.529h2.183V46.654H80.331Zm-.347-3.912a1.431,1.431,0,1,1,0,.013v-.013" fill="#002e5d"/>
          <path id="Path_18" data-name="Path 18" d="M87.3,40.13a4.579,4.579,0,0,0,9.155.215c0-.071,0-.143,0-.215a4.588,4.588,0,0,0-9.155-.612,4.807,4.807,0,0,0,0,.612m9.155,4.284a5.735,5.735,0,0,1-4.817,2.474,6.43,6.43,0,0,1-6.578-6.281c0-.15,0-.3,0-.451A6.5,6.5,0,0,1,91.188,33.3c.151-.008.3-.011.452-.009a5.714,5.714,0,0,1,4.817,2.528V33.525H98.64V46.65H96.457Z" fill="#002e5d"/>
          <path id="Path_19" data-name="Path 19" d="M106.515,46.888c-2.8,0-4.5-1.251-4.5-4.79V29.356h2.156v4.178H109.6v2h-5.428v6.732A2.3,2.3,0,0,0,106.7,44.81a5.205,5.205,0,0,0,3.058-.958v2.1a5.628,5.628,0,0,1-3.247.932" fill="#002e5d"/>
          <path id="Path_20" data-name="Path 20" d="M111.651,33.529h2.183V46.654h-2.183Zm-.346-3.912a1.431,1.431,0,1,1,0,.013v-.013" fill="#002e5d"/>
        </g>
      </g>
    </g>
    <path id="Path_21" data-name="Path 21" d="M122.081,47.075l-6.706-13.546h2.548l4.258,9.022,4.2-9.022H128.7Z" fill="#002e5d"/>
    <g id="Group_6" data-name="Group 6">
      <g clip-path="url(#clip-path)">
        <g id="Group_5" data-name="Group 5">
          <path id="Path_22" data-name="Path 22" d="M131.076,39.168h8.118a3.9,3.9,0,0,0-3.916-3.886h-.023a4.168,4.168,0,0,0-4.179,3.886M141.4,40.924H131.046a4.517,4.517,0,0,0,4.79,3.938A8,8,0,0,0,140.52,43.4v2.076a8.219,8.219,0,0,1-4.684,1.411c-4.125,0-7.079-2.662-7.079-6.68,0-3.939,2.5-6.918,6.467-6.918a6.129,6.129,0,0,1,6.267,5.988c0,.186,0,.372-.013.558a7.253,7.253,0,0,1-.08,1.091" fill="#002e5d"/>
        </g>
      </g>
    </g>
  </g>
</svg>
