<svg id="Layer_1" data-name="Layer 1" xmlns="http://www.w3.org/2000/svg" width="69.768" height="69.768" viewBox="0 0 69.768 69.768">
  <path id="Path_189" data-name="Path 189" d="M69.768,69.768H0V0H69.768ZM48.617,11.956l-4.68,17.721c-1.777-6.757-3.407-12.868-3.68-13.871a4.762,4.762,0,0,0-5-3.846H30.485L25.816,29.689,21.151,11.956,10.683,13.175s5.769,21.89,6.8,25.862c.673,2.542,2.019,4.261,4.588,4.957,2.657.723,8.13,2.35,8.13,2.35l4.676-17.782c1.419,5.384,2.5,9.349,2.927,10.906a6.359,6.359,0,0,0,4.822,4.588c3.6,1.058,7.718,2.288,7.718,2.288l8.741-33.238ZM40.36,54.02a2.933,2.933,0,0,0-3.019,1.95,2.713,2.713,0,0,0-2.873-1.95,3.05,3.05,0,0,0-3.177,2.5v-4.6H29.077v8.307h2.215v-2.28a2.877,2.877,0,0,0,3.107,2.43,2.941,2.941,0,0,0,2.95-1.923,2.916,2.916,0,0,0,3.011,1.923,3.179,3.179,0,1,0,.113-6.357C40.435,54.019,40.4,54.019,40.36,54.02Zm-5,3.8a.923.923,0,0,1-.942.9c-.715,0-.977-.558-.977-1.538,0-.735.181-1.538,1.023-1.538.523,0,.838.35.838.954H37.18a3.946,3.946,0,0,0,0,1.208Zm5,.9c-.873,0-1-.885-1-1.538s.127-1.538,1-1.538,1,.873,1,1.538S41.229,58.72,40.36,58.72Zm16.152.2a1.163,1.163,0,0,1-1.181-1.144c0-.026,0-.051,0-.076h4.349c0-2.338-1.023-3.676-3.292-3.676a3.038,3.038,0,0,0-3.053,2.307V56.07a1.878,1.878,0,0,0-1.7-2.036,1.839,1.839,0,0,0-.306,0,2.352,2.352,0,0,0-1.715.615,1.187,1.187,0,0,0-.088.1c-.112.119-.173.2-.215.246a1.752,1.752,0,0,0-1.588-.965A2.128,2.128,0,0,0,45.794,55H45.76v-.815H43.571v6.038h2.215V56.951c0-.638.192-1.115.769-1.115.715,0,.769.546.769,1.115V60.22h2.227V56.951c0-.638.192-1.115.769-1.115.7,0,.769.546.769,1.115V60.22H53.3V58.154a3.388,3.388,0,0,0,6.211.346H57.454a1.156,1.156,0,0,1-.961.415Zm-.023-3.461a1.026,1.026,0,0,1,1.066.986v.087H55.343a1.077,1.077,0,0,1,1.084-1.07h.043ZM26.231,56.1a2.838,2.838,0,0,0-3.077-2.084,3.045,3.045,0,0,0-2.8,1.638l.461-1.488H18.459l-.827,3.757h-.046l-.8-3.757H14.71l-.769,3.757h-.035l-.885-3.757H10.714L12.552,60.2h2.284l.885-3.734h.046l.861,3.734h2.284L20,56.72a3.632,3.632,0,0,0-.038.488,3.015,3.015,0,0,0,2.862,3.161,3.133,3.133,0,0,0,.411-.008,3.079,3.079,0,0,0,2.98-1.692v1.538H28.43v-8.29H26.212Zm-2.98-.642A1.027,1.027,0,0,1,24.3,56.463v.069H22.082a1.106,1.106,0,0,1,1.142-1.069h0Zm.977,3.027a1.154,1.154,0,0,1-.965.431,1.168,1.168,0,0,1-1.182-1.154c0-.023,0-.046,0-.069h4.13v.792Z" fill="#1d1d1b"/>
</svg>
