<svg xmlns="http://www.w3.org/2000/svg" width="64" height="64" class="inline-flex w-4 h-4 fill-white"
     viewBox="0 0 64 64">
    <path fill-rule="evenodd"
          d="M31.589 5c-.824 0-1.639.018-2.443.054a1.53 1.53 0 1 0 .137 3.057 51.618 51.618 0 0 1 4.611 0 1.53 1.53 0 1 0 .137-3.057A54.685 54.685 0 0 0 31.59 5ZM24.7 8.531a1.53 1.53 0 0 0-.427-3.03 44.433 44.433 0 0 0-4.826.947 1.53 1.53 0 0 0 .76 2.963 41.377 41.377 0 0 1 4.493-.88Zm14.202-3.03a1.53 1.53 0 1 0-.427 3.03 41.37 41.37 0 0 1 4.493.88 1.53 1.53 0 1 0 .76-2.963 44.433 44.433 0 0 0-4.826-.947Zm9.54 2.508a1.53 1.53 0 1 0-1.182 2.822c1.512.634 2.803 1.346 3.843 2.107a1.53 1.53 0 1 0 1.805-2.47c-1.27-.93-2.78-1.752-4.465-2.459Zm-32.527 2.822a1.53 1.53 0 0 0-1.183-2.822c-1.685.707-3.194 1.53-4.465 2.458a1.53 1.53 0 1 0 1.805 2.47c1.04-.76 2.33-1.472 3.843-2.106Zm-6.473 5.035a1.53 1.53 0 0 0-2.774-1.291A6.93 6.93 0 0 0 6 17.516a6.93 6.93 0 0 0 .669 2.942 1.53 1.53 0 0 0 2.774-1.292 3.873 3.873 0 0 1-.383-1.65c0-.546.124-1.094.383-1.65Zm47.065-1.291a1.53 1.53 0 0 0-2.774 1.291c.26.556.384 1.104.384 1.65 0 .546-.125 1.095-.384 1.65a1.53 1.53 0 0 0 2.774 1.292 6.93 6.93 0 0 0 .67-2.942 6.93 6.93 0 0 0-.67-2.941Zm-44.435 7.52a1.53 1.53 0 0 0-1.805 2.47c.738.54 1.556 1.043 2.442 1.508a4.726 4.726 0 0 0 1.739 6.366c-.051.5-.085 1.035-.098 1.598a1.53 1.53 0 0 0 3.058.074c.01-.373.028-.727.056-1.06a4.731 4.731 0 0 0 4.06-3.99c.892.18 1.81.338 2.75.47a1.53 1.53 0 0 0 .426-3.03 41.97 41.97 0 0 1-3.901-.733 4.724 4.724 0 0 0-5.549-1.857c-1.228-.558-2.293-1.17-3.178-1.816Zm3.105 6.268c0-.523.241-.99.618-1.296.187-.06.361-.156.513-.284a1.669 1.669 0 1 1-1.13 1.58Zm37.731-3.798a1.53 1.53 0 0 0-1.805-2.47c-1.04.76-2.33 1.473-3.843 2.106a1.53 1.53 0 1 0 1.183 2.822c1.685-.706 3.195-1.53 4.465-2.458Zm-9.18 4.02a1.53 1.53 0 1 0-.76-2.964c-1.407.36-2.911.658-4.493.88a1.53 1.53 0 0 0 .427 3.03 44.437 44.437 0 0 0 4.826-.947Zm-14.446-1.663a1.53 1.53 0 0 0-.137 3.056 54.614 54.614 0 0 0 4.885 0 1.53 1.53 0 0 0-.137-3.056 51.487 51.487 0 0 1-4.611 0ZM17.626 37.78a1.53 1.53 0 1 0-3.031.417c.178 1.296.46 2.664.872 4.06a1.53 1.53 0 1 0 2.935-.866 24.623 24.623 0 0 1-.776-3.61Zm2.09 7.049a1.53 1.53 0 1 0-2.76 1.318 24.724 24.724 0 0 0 2.109 3.608 1.53 1.53 0 0 0 2.5-1.764 21.666 21.666 0 0 1-1.849-3.162Zm4.208 5.952a1.53 1.53 0 0 0-2.153 2.173 24.387 24.387 0 0 0 3.213 2.676 1.53 1.53 0 1 0 1.751-2.509 21.328 21.328 0 0 1-2.81-2.34Zm5.989 4.199a1.53 1.53 0 1 0-1.337 2.752c.61.296 1.243.576 1.9.84l.004-.009a1.53 1.53 0 1 0 1.128-2.821l.005-.012a26.018 26.018 0 0 1-1.7-.75Z"
          clip-rule="evenodd"></path>
</svg>